<?xml version="1.0" encoding="UTF-8" standalone="no"?>
<svg width="18px" height="20px" viewBox="0 0 18 20" version="1.1" xmlns="http://www.w3.org/2000/svg" xmlns:xlink="http://www.w3.org/1999/xlink">
    <!-- Generator: sketchtool 3.8.3 (29802) - http://www.bohemiancoding.com/sketch -->
    <title>8F18FF8D-0089-4998-AECB-EA32DEACFFFF</title>
    <desc>Created with sketchtool.</desc>
    <defs></defs>
    <g id="Page-1" stroke="none" stroke-width="1" fill="none" fill-rule="evenodd">
        <g id="TodoList" transform="translate(-732.000000, -247.000000)" fill="#566394">
            <path d="M748,249 L747,249 L747,247 L745,247 L745,249 L737,249 L737,247 L735,247 L735,249 L734,249 C732.89,249 732.01,249.9 732.01,251 L732,265 C732,266.1 732.89,267 734,267 L748,267 C749.1,267 750,266.1 750,265 L750,251 C750,249.9 749.1,249 748,249 L748,249 Z M748,265 L734,265 L734,254 L748,254 L748,265 L748,265 Z M736,256 L741,256 L741,261 L736,261 L736,256 Z" id="littleCalendar"></path>
        </g>
    </g>
</svg>